<?xml version="1.0" encoding="utf-8"?>
<!-- Generator: Adobe Illustrator 27.7.0, SVG Export Plug-In . SVG Version: 6.00 Build 0)  -->
<svg version="1.1" id="Capa_1" xmlns="http://www.w3.org/2000/svg" xmlns:xlink="http://www.w3.org/1999/xlink" x="0px" y="0px"
	 viewBox="0 0 512 512" style="enable-background:new 0 0 512 512;" xml:space="preserve">
<style type="text/css">
	.st0{fill:#805CA5;}
</style>
<g transform="translate(0.000000,512.000000) scale(0.100000,-0.100000)">
	<path class="st0" d="M1075,5106c-262-46-502-168-686-347c-184-181-297-378-360-631l-24-93V2565c0-1396,1-1474,19-1550
		C147,485,548,104,1080,15c126-22,2834-22,2960,0c267,45,504,164,691,346c183,180,293,372,361,629l23,85l3,1430
		c2,1017,0,1453-8,1510c-66,469-405,880-855,1035c-197,69-77,64-1670,66C1491,5117,1128,5115,1075,5106z M2159,3587
		c188-57,313-186,356-369c29-125,16-279-33-373c-38-74-133-147-209-161c-54-10-47-21,17-27c190-17,309-205,310-489
		c0-317-153-530-455-629c-69-23-78-23-617-26l-548-4v1051v1051l563-4C2027,3604,2112,3601,2159,3587z M3850,3395v-95h-420h-420v95
		v95h420h420V3395z M3649,3064c175-44,319-163,395-326c24-51,51-122,60-158c21-82,41-297,32-344l-7-36h-511h-511l6-75
		c10-130,69-224,173-276c44-22,61-24,179-24c122,0,133,2,187,28c68,33,105,74,120,133l12,44h168c191,0,175,10,157-99
		c-40-235-228-386-529-427c-363-48-663,87-794,358c-96,199-116,390-65,622c67,305,254,512,519,578C3359,3091,3539,3092,3649,3064z"
		/>
	<path class="st0" d="M1420,3031v-231h293c265,0,296,2,327,18c55,30,74,80,78,202c3,94,1,110-20,149c-45,87-39,86-379,89l-299,3
		V3031z"/>
	<path class="st0" d="M1420,2195v-285h300c337,0,344,1,408,74c42,48,57,103,56,216c0,136-38,216-126,261c-34,17-62,19-338,19h-300
		V2195z"/>
	<path class="st0" d="M3339,2786c-112-40-207-155-234-283l-7-33h333h332l-7,57c-9,75-57,174-103,212c-20,17-57,37-82,46
		C3517,2803,3389,2804,3339,2786z"/>
</g>
</svg>
