<?xml version="1.0" encoding="utf-8"?>
<!-- Generator: Adobe Illustrator 27.7.0, SVG Export Plug-In . SVG Version: 6.00 Build 0)  -->
<svg version="1.1" id="Capa_1" xmlns="http://www.w3.org/2000/svg" xmlns:xlink="http://www.w3.org/1999/xlink" x="0px" y="0px"
	 viewBox="0 0 512 512" style="enable-background:new 0 0 512 512;" xml:space="preserve">
<style type="text/css">
	.st0{fill:#805CA5;}
</style>
<g transform="translate(0.000000,512.000000) scale(0.100000,-0.100000)">
	<path class="st0" d="M645,5114c-82-18-153-43-230-82c-73-37-108-64-185-142c-78-77-104-112-142-185c-92-180-83,44-83-2145
		S-4,595,88,415c38-73,64-108,142-185c77-78,112-105,186-143c52-26,128-56,175-67C674,0,708,0,2558,0c2126,0,1947-7,2132,82
		c93,45,115,61,200,147c78,78,105,113,143,187c27,53,55,128,67,177c20,84,20,108,18,1999c-3,1910-3,1913-24,1974
		c-46,133-103,224-204,324c-78,79-112,105-186,143c-52,26-128,56-175,67c-83,20-115,20-1974,19C1516,5118,656,5116,645,5114z
		 M3990,3669c70-33,126-89,159-159l26-55l3-845c3-872,0-945-37-1018c-28-55-89-111-151-141l-55-26H2560H1185l-55,26
		c-70,33-126,89-159,159l-26,55v895v895l26,55c47,98,134,165,234,180c27,4,653,7,1390,6l1340-1L3990,3669z"/>
	<path class="st0" d="M1420,3446c53-48,1131-896,1140-896s1087,848,1140,896c12,12-170,14-1140,14S1408,3458,1420,3446z"/>
	<path class="st0" d="M1180,2517c0-785,1-825,18-840c17-16,126-17,1364-17c1290,0,1346,1,1361,18c16,17,17,90,17,840
		c0,452-2,822-5,822c-2,0-301-236-664-524c-388-308-672-527-689-531c-16-3-41-1-56,5c-15,5-322,244-682,530s-657,520-659,520
		C1182,3340,1180,2969,1180,2517z"/>
</g>
</svg>
