<?xml version="1.0" encoding="utf-8"?>
<!-- Generator: Adobe Illustrator 27.7.0, SVG Export Plug-In . SVG Version: 6.00 Build 0)  -->
<svg version="1.1" id="Capa_1" xmlns="http://www.w3.org/2000/svg" xmlns:xlink="http://www.w3.org/1999/xlink" x="0px" y="0px"
	 viewBox="0 0 512 512" style="enable-background:new 0 0 512 512;" xml:space="preserve">
<style type="text/css">
	.st0{fill:#805CA5;}
</style>
<g transform="translate(0.000000,512.000000) scale(0.100000,-0.100000)">
	<path class="st0" d="M1111,5104C563,5012,105,4550,15,4000c-23-143-23-2737,0-2880C105,565,565,105,1120,15c143-23,2737-23,2880,0
		c555,90,1015,550,1105,1105c23,143,23,2737,0,2880c-90,555-550,1015-1105,1105C3864,5127,1243,5126,1111,5104z M3395,4210
		c398-38,714-320,803-718c15-70,17-159,17-932c0-771-2-863-17-932c-81-361-345-625-706-706c-70-15-159-17-932-17
		c-771,0-863,2-932,17c-361,81-625,345-706,706c-15,70-17,159-17,932c0,942-1,917,64,1085c67,173,211,344,369,439
		c107,64,254,114,368,125C1837,4221,3263,4222,3395,4210z"/>
	<path class="st0" d="M1635,3901c-205-60-367-225-420-428c-23-88-22-1737,1-1826c53-206,225-378,430-431c54-14,169-16,914-16
		c946,0,906-3,1044,67c96,48,201,153,249,249c70,138,67,98,67,1044s3,906-67,1044c-48,96-153,201-249,249c-138,70-97,67-1050,66
		C1767,3919,1690,3917,1635,3901z M3494,3541c43-29,66-70,66-121s-23-92-66-121c-61-40-152-18-195,47c-23,35-25,104-4,143
		C3328,3554,3432,3581,3494,3541z M2728,3284c91-19,229-88,302-150c179-152,270-346,270-573c0-127-18-207-69-315
		c-72-154-193-277-346-351c-113-55-202-76-325-76s-212,21-325,76c-153,74-266,188-340,340c-57,116-75,194-75,325s18,210,75,325
		c71,145,182,260,324,334C2381,3303,2539,3323,2728,3284z"/>
	<path class="st0" d="M2411,2991c-120-45-207-124-264-240c-31-64-32-71-32-191c0-122,1-127,34-195c45-92,124-171,216-216
		c68-33,73-34,195-34s127,1,195,34c92,45,171,124,216,216c33,68,34,73,34,195s-1,127-34,195c-45,92-124,171-216,215
		c-65,32-79,35-180,37C2485,3010,2455,3007,2411,2991z"/>
</g>
</svg>
