<?xml version="1.0" encoding="utf-8"?>
<!-- Generator: Adobe Illustrator 27.7.0, SVG Export Plug-In . SVG Version: 6.00 Build 0)  -->
<svg version="1.1" id="Capa_1" xmlns="http://www.w3.org/2000/svg" xmlns:xlink="http://www.w3.org/1999/xlink" x="0px" y="0px"
	 viewBox="0 0 512 512" style="enable-background:new 0 0 512 512;" xml:space="preserve">
<style type="text/css">
	.st0{fill:#805CA5;}
</style>
<g transform="translate(0.000000,512.000000) scale(0.100000,-0.100000)">
	<path class="st0" d="M512,5100c-236-62-432-259-492-496C0,4528,0,4485,0,2561C0,374-5,539,70,385c66-137,178-249,315-315
		C539-5,374,0,2560,0s2021-5,2175,70c179,87,316,254,365,446c20,76,20,119,20,2044s0,1968-20,2044c-61,239-257,435-496,496
		c-76,20-118,20-2048,19C650,5119,583,5118,512,5100z M2825,4130c335-57,637-219,877-468c206-215,343-478,410-785
		c30-137,32-444,5-582c-116-584-508-1035-1062-1222c-173-58-296-77-495-77c-141,0-197,4-288,22c-123,25-253,65-355,111l-64,29
		l-394-94c-217-52-406-94-420-94s-34,9-44,19c-16,19-14,37,70,442l87,422l-35,76c-160,350-180,770-56,1144c128,383,429,731,788,911
		c140,70,337,133,488,155C2452,4156,2700,4151,2825,4130z"/>
	<path class="st0" d="M2385,3810c-218-35-424-122-591-250c-82-64-219-212-274-297c-141-214-204-430-204-693c0-212,41-385,139-580
		l46-92l-51-245c-28-135-48-248-45-251s114,20,248,51l242,56l90-44c187-94,364-135,576-135c217,0,371,36,565,131
		c339,168,586,495,660,876c24,118,24,347,1,465c-51,258-159,461-346,649c-180,181-364,283-611,340C2731,3814,2480,3824,2385,3810z
		 M2099,3310c20-14,49-67,105-195c88-200,88-196,16-291c-78-103-77-139,9-246c104-131,328-322,447-381c85-41,118-34,198,43
		c92,88,87,88,293,29c190-54,226-73,238-131c9-39-23-101-91-177c-70-76-124-114-194-135c-76-23-215-21-320,4
		c-366,88-855,526-991,888c-30,81-33,96-33,212c-1,112,1,130,22,170c64,122,176,230,239,230C2056,3330,2084,3321,2099,3310z"/>
</g>
</svg>
